<svg xmlns="http://www.w3.org/2000/svg" viewBox="0 0 1080 420" role="img" aria-label="Luciano Wash Limpieza Profesional">
  <defs>
    <linearGradient id="water" x1="0" y1="0" x2="1" y2="1">
      <stop offset="0" stop-color="#28d4ff"/>
      <stop offset=".52" stop-color="#0d8bd7"/>
      <stop offset="1" stop-color="#075ca7"/>
    </linearGradient>
    <linearGradient id="shine" x1="0" y1="0" x2="0" y2="1">
      <stop offset="0" stop-color="#ffffff"/>
      <stop offset="1" stop-color="#dfe8ec"/>
    </linearGradient>
    <filter id="lift" x="-18%" y="-22%" width="136%" height="144%">
      <feDropShadow dx="0" dy="12" stdDeviation="10" flood-color="#000000" flood-opacity=".42"/>
    </filter>
  </defs>

  <g transform="translate(42 50)" filter="url(#lift)">
    <path d="M68 124 139 66l72 58" fill="none" stroke="#ffffff" stroke-width="24" stroke-linecap="round" stroke-linejoin="round"/>
    <path d="M68 124 139 66l72 58" fill="none" stroke="#0d2736" stroke-width="15" stroke-linecap="round" stroke-linejoin="round"/>
    <path d="M89 152h101" fill="none" stroke="#ffffff" stroke-width="22" stroke-linecap="round"/>
    <path d="M89 152h101" fill="none" stroke="#0d2736" stroke-width="13" stroke-linecap="round"/>
    <path d="M78 148c18-34 44-51 79-51h17c35 0 61 17 80 51" fill="#cfd7dc" stroke="#ffffff" stroke-width="18" stroke-linejoin="round"/>
    <path d="M78 148c18-34 44-51 79-51h17c35 0 61 17 80 51" fill="#cfd7dc" stroke="#0d2736" stroke-width="9" stroke-linejoin="round"/>
    <path d="M99 140h29M169 140h29" stroke="#ffffff" stroke-width="9" stroke-linecap="round"/>
    <path d="M53 176c30 34 69 51 116 51s86-17 116-51" fill="none" stroke="#ffffff" stroke-width="24" stroke-linecap="round"/>
    <path d="M53 176c30 34 69 51 116 51s86-17 116-51" fill="none" stroke="url(#water)" stroke-width="15" stroke-linecap="round"/>
    <path d="M48 83c14 20 22 36 22 49 0 17-11 28-26 28s-26-11-26-28c0-13 10-29 30-49z" fill="url(#water)" stroke="#ffffff" stroke-width="15"/>
    <path d="M48 83c14 20 22 36 22 49 0 17-11 28-26 28s-26-11-26-28c0-13 10-29 30-49z" fill="url(#water)" stroke="#0d2736" stroke-width="7"/>
    <circle cx="236" cy="94" r="20" fill="url(#water)" stroke="#ffffff" stroke-width="13"/>
    <circle cx="236" cy="94" r="20" fill="url(#water)" stroke="#0d2736" stroke-width="6"/>
    <circle cx="248" cy="154" r="12" fill="url(#water)" stroke="#ffffff" stroke-width="9"/>
    <circle cx="248" cy="154" r="12" fill="url(#water)" stroke="#0d2736" stroke-width="4"/>
    <path d="M217 57h28v28h-28zM231 38v66M198 71h66" fill="none" stroke="#28d4ff" stroke-width="10" stroke-linecap="round"/>
    <text x="139" y="256" text-anchor="middle" font-family="Arial, Helvetica, sans-serif" font-size="42" font-weight="900" fill="#ffffff" stroke="#0d2736" stroke-width="5" paint-order="stroke">LW</text>
  </g>

  <g transform="translate(372 70)" filter="url(#lift)">
    <text x="0" y="76" font-family="Arial, Helvetica, sans-serif" font-size="82" font-weight="900" fill="#ffffff" stroke="#0d2736" stroke-width="8" paint-order="stroke">Luciano</text>
    <text x="0" y="174" font-family="Arial, Helvetica, sans-serif" font-size="108" font-weight="900" fill="url(#shine)" stroke="#0d2736" stroke-width="12" paint-order="stroke">Wash</text>
    <text x="0" y="174" font-family="Arial, Helvetica, sans-serif" font-size="108" font-weight="900" fill="url(#water)" stroke="#ffffff" stroke-width="4" paint-order="stroke">Wash</text>
    <rect x="4" y="206" width="510" height="56" rx="8" fill="#0d2736" stroke="#ffffff" stroke-width="3"/>
    <text x="259" y="243" text-anchor="middle" font-family="Arial, Helvetica, sans-serif" font-size="30" font-weight="900" fill="#ffffff">LIMPIEZA PROFESIONAL</text>
    <text x="6" y="318" font-family="Arial, Helvetica, sans-serif" font-size="31" font-weight="900" fill="#28d4ff" stroke="#0d2736" stroke-width="3" paint-order="stroke">Autos, hogares, muebles y negocios</text>
  </g>
</svg>
