<svg xmlns="http://www.w3.org/2000/svg" viewBox="0 0 760 260" role="img" aria-label="Luciano Wash">
  <defs>
    <linearGradient id="water" x1="0" y1="0" x2="1" y2="1">
      <stop offset="0" stop-color="#28d4ff"/>
      <stop offset=".55" stop-color="#0d8bd7"/>
      <stop offset="1" stop-color="#075ca7"/>
    </linearGradient>
  </defs>
  <rect width="760" height="260" rx="26" fill="#ffffff"/>
  <path d="M0 198c86-31 176-38 270-22 105 18 190 8 286-30 72-29 138-36 204-20v134H0z" fill="#eaf8ff"/>
  <g transform="translate(28 34)">
    <path d="M45 96 104 48l59 48" fill="none" stroke="#0d2736" stroke-width="13" stroke-linecap="round" stroke-linejoin="round"/>
    <path d="M62 124h86" fill="none" stroke="#0d2736" stroke-width="12" stroke-linecap="round"/>
    <path d="M55 121c15-28 37-42 67-42h12c30 0 53 14 68 42" fill="#bfc6ca" stroke="#0d2736" stroke-width="8" stroke-linejoin="round"/>
    <path d="M72 113h24M130 113h24" stroke="#ffffff" stroke-width="8" stroke-linecap="round"/>
    <path d="M35 148c25 29 58 44 97 44s72-15 97-44" fill="none" stroke="url(#water)" stroke-width="14" stroke-linecap="round"/>
    <path d="M34 69c12 18 19 32 19 44 0 14-10 24-23 24S7 127 7 113c0-12 9-26 27-44z" fill="url(#water)" stroke="#0d2736" stroke-width="7"/>
    <circle cx="203" cy="78" r="18" fill="url(#water)" stroke="#0d2736" stroke-width="7"/>
  </g>
  <g transform="translate(286 52)">
    <text x="0" y="66" font-family="Arial, Helvetica, sans-serif" font-size="70" font-weight="900" fill="#0d2736">Luciano</text>
    <text x="0" y="144" font-family="Arial, Helvetica, sans-serif" font-size="86" font-weight="900" fill="url(#water)" stroke="#0d2736" stroke-width="5" paint-order="stroke">Wash</text>
    <rect x="2" y="168" width="360" height="42" rx="7" fill="#0d2736"/>
    <text x="182" y="197" text-anchor="middle" font-family="Arial, Helvetica, sans-serif" font-size="23" font-weight="900" fill="#ffffff">LIMPIEZA PROFESIONAL</text>
  </g>
</svg>
